<svg id="Artboard_30" height="512" viewBox="0 0 64 64" width="512" xmlns="http://www.w3.org/2000/svg" data-name="Artboard 30"><path d="m51 53v6a3 3 0 0 0 3 3 3 3 0 0 0 3-3v-6z" fill="#2b2c2c"/><path d="m7 53v6a3 3 0 0 0 3 3 3 3 0 0 0 3-3v-6z" fill="#2b2c2c"/><path d="m55.982 32.917-3.182-14.853a6 6 0 0 0 -5.927-5.064h-29.746a6 6 0 0 0 -5.927 5.064l-3.179 14.836z" fill="#f4ac1c"/><path d="m4 48v-8a7.747 7.747 0 0 1 7.467-8h41.066a7.747 7.747 0 0 1 7.467 8v8z" fill="#ffc239"/><rect fill="#aeafb2" height="6" rx="2" width="60" x="2" y="48"/><path d="m60 40a7.747 7.747 0 0 0 -7.467-8h-41.066a7.037 7.037 0 0 0 -3.385.875 8.684 8.684 0 0 0 -.082 1.125v3a6 6 0 0 0 6 6h46z" fill="#ffd55d"/><circle cx="10" cy="42" fill="#f1f1f3" r="3"/><circle cx="54" cy="42" fill="#f1f1f3" r="3"/><path d="m23 37h18a6 6 0 0 1 6 6v2a0 0 0 0 1 0 0h-30a0 0 0 0 1 0 0v-2a6 6 0 0 1 6-6z" fill="#aeafb2"/><rect fill="#2b2c2c" height="2" rx="1" width="22" x="21" y="41"/><path d="m52 29h-40l2.49-10.791a2.851 2.851 0 0 1 2.777-2.209h29.462a2.855 2.855 0 0 1 2.782 2.212z" fill="#66c2ed"/><path d="m8.6 30.2a2 2 0 0 1 -1.6.8h-3a2 2 0 0 1 -2-2 2 2 0 0 1 2-2h3a2 2 0 0 1 1.952 1.562z" fill="#ffc239"/><path d="m55.048 28.561a2 2 0 0 1 1.952-1.561h3a2 2 0 0 1 2 2 2 2 0 0 1 -2 2h-3a2 2 0 0 1 -1.6-.8z" fill="#ffc239"/><rect fill="#d5d6d8" height="11" rx="2" width="28" x="18" y="2"/><path d="m44 2h-3a2 2 0 0 1 2 2v7a2 2 0 0 1 -2 2h3a2 2 0 0 0 2-2v-7a2 2 0 0 0 -2-2z" fill="#a0a1a2"/><g fill="#ffc239"><path d="m20 6h2v5h2v-5h2v-2h-6z"/><path d="m30 4h-1a1 1 0 0 0 -.949.684l-2 6 1.9.632.437-1.316h2.224l.439 1.316 1.9-.632-2-6a1 1 0 0 0 -.951-.684zm-.946 4 .446-1.338.446 1.338z"/><path d="m38.6 4.232-1.1 1.547-1.1-1.547a1 1 0 0 0 -1.4-.232 1 1 0 0 0 -.233 1.4l1.5 2.105-1.5 2.105a1 1 0 0 0 .233 1.39 1 1 0 0 0 1.4-.232l1.1-1.547 1.1 1.547a1 1 0 0 0 1.4.232 1 1 0 0 0 .233-1.395l-1.504-2.105 1.5-2.105a1 1 0 0 0 -.229-1.395 1 1 0 0 0 -1.4.232z"/><rect height="7" rx="1" width="2" x="42" y="4"/></g><path d="m44 14h-24a3 3 0 0 1 -3-3v-7a3 3 0 0 1 3-3h24a3 3 0 0 1 3 3v7a3 3 0 0 1 -3 3zm-24-11a1 1 0 0 0 -1 1v7a1 1 0 0 0 1 1h24a1 1 0 0 0 1-1v-7a1 1 0 0 0 -1-1z" fill="#aeafb2"/><path d="m49.511 18.212a2.855 2.855 0 0 0 -2.782-2.212h-28.171c-.022.07-.051.137-.068.209l-1.52 6.591a3.434 3.434 0 0 0 3.346 4.2h31.222z" fill="#76d8ff"/><path d="m49.511 18.212a2.855 2.855 0 0 0 -2.782-2.212h-3a2.855 2.855 0 0 1 2.782 2.212l2.489 10.788h3z" fill="#43bad6"/></svg>