<svg height="512" viewBox="0 0 64 64" width="512" xmlns="http://www.w3.org/2000/svg"><g id="Artboard_26" data-name="Artboard 26"><rect fill="#2b2e33" height="60" rx="4" width="32" x="28" y="2"/><rect fill="#d6e0ea" height="58" rx="3" width="30" x="29" y="3"/><path d="m56 3h-19.967a3.033 3.033 0 0 0 -3.033 3.033v39.424a9.544 9.544 0 0 0 9.543 9.543h12.332a4.125 4.125 0 0 0 4.125-4.125v-44.875a3 3 0 0 0 -3-3z" fill="#fbfbfa"/><path d="m36 2 1 4h14l1-4z" fill="#2b2e33"/><path d="m56 43h-5a1 1 0 0 1 0-2h5a1 1 0 0 1 0 2z" fill="#27d674"/><path d="m56 47h-5a1 1 0 0 1 0-2h5a1 1 0 0 1 0 2z" fill="#27d674"/><path d="m56 52h-19.267a1 1 0 0 1 0-2h19.267a1 1 0 0 1 0 2z" fill="#27d674"/><circle cx="15" cy="17" fill="#1cb15f" r="9"/><ellipse cx="15" cy="15.5" fill="#27d674" rx="8.865" ry="7.5"/><path d="m28 38-4.26 2.569a1.49 1.49 0 0 0 -.74 1.287v7.432a1.722 1.722 0 0 0 2.834 1.312l9.19-7.777a3.49 3.49 0 0 1 2.254-.823h.233a3.489 3.489 0 0 1 3.489 3.489 3.488 3.488 0 0 1 -1.1 2.545l-13.05 12.232a6.415 6.415 0 0 1 -4.386 1.734h-18.464v-14l3.167-.633a4.663 4.663 0 0 0 2.9-1.9l4.694-6.706a8.989 8.989 0 0 1 3.139-2.774l6.268-4.4a3.22 3.22 0 0 1 1.85-.587h1.982z" fill="#f4c8ad"/><path d="m25.834 50.6a1.722 1.722 0 0 1 -2.834-1.313v-7.431a1.49 1.49 0 0 1 .74-1.287l4.26-2.569v-1.513l-6.45 3.752a3.59 3.59 0 0 0 -1.784 3.1v6.3a2.055 2.055 0 0 0 2.055 2.061h2.193a1.582 1.582 0 0 0 1.041-.392l1.356-1.191z" fill="#f2b9a1"/><path d="m41 45.489a3.446 3.446 0 0 0 -.476-1.73l-15.224 13.128a5.48 5.48 0 0 1 -3.578 1.33h-8.331a5.478 5.478 0 0 1 -5.478-5.478v-5.6a4.655 4.655 0 0 1 -.746.226l-3.167.635v14h18.464a6.415 6.415 0 0 0 4.386-1.734l13.05-12.232a3.488 3.488 0 0 0 1.1-2.545z" fill="#f2b9a1"/><path d="m48 35h-16a1 1 0 0 1 -1-1v-5a2 2 0 0 1 2-2h3.382a1 1 0 0 0 .894-.553l2.171-4.341a2 2 0 0 1 1.789-1.106h8.322a2 2 0 0 1 1.9 1.368l1.542 4.632h2a2 2 0 0 1 2 2v5a1 1 0 0 1 -1 1z" fill="#f4ac1c"/><path d="m56 39h-24a1 1 0 0 1 0-2h24a1 1 0 0 1 0 2z" fill="#181a1c"/><circle cx="51" cy="35" fill="#2b2e33" r="3"/><circle cx="51" cy="35" fill="#fbfbfa" r="1"/><circle cx="36" cy="35" fill="#2b2e33" r="3"/><circle cx="36" cy="35" fill="#fbfbfa" r="1"/><path d="m48 21v-3a1 1 0 0 0 -1-1h-2a1 1 0 0 0 -1 1v3z" fill="#f4ac1c"/><path d="m14 22a1 1 0 0 1 -.707-.293l-3-3a1 1 0 0 1 1.414-1.414l2.236 2.236 5.3-6.18a1 1 0 1 1 1.518 1.3l-6 7a1 1 0 0 1 -.72.348z" fill="#fff"/><path d="m40 10.664a1 1 0 0 0 -1-1h-4a1 1 0 0 0 0 2h1v3a1 1 0 1 0 2 0v-3h1a1 1 0 0 0 1-1z" fill="#d6e0ea"/><path d="m42.9 10.217a1.042 1.042 0 0 0 -1.79 0l-2 4a1 1 0 0 0 1.79.894l1.1-2.211 1.1 2.211a1 1 0 1 0 1.79-.894z" fill="#d6e0ea"/><path d="m50.707 9.957a1 1 0 0 0 -1.414 0l-1.293 1.293-1.293-1.293a1 1 0 0 0 -1.414 1.414l1.293 1.293-1.293 1.293a1 1 0 1 0 1.414 1.414l1.293-1.293 1.293 1.293a1 1 0 1 0 1.414-1.414l-1.293-1.293 1.293-1.293a1 1 0 0 0 0-1.414z" fill="#d6e0ea"/><path d="m53 11.664a1 1 0 0 0 -1 1v2a1 1 0 1 0 2 0v-2a1 1 0 0 0 -1-1z" fill="#d6e0ea"/><path d="m53.71 11.374a1.014 1.014 0 0 0 0-1.42 1.032 1.032 0 0 0 -.33-.21 1 1 0 0 0 -.76 0 1.155 1.155 0 0 0 -.33.21 1.032 1.032 0 0 0 -.21.33 1 1 0 0 0 -.08.38.99.99 0 0 0 1 1 1 1 0 0 0 .38-.08 1.032 1.032 0 0 0 .33-.21z" fill="#d6e0ea"/><ellipse cx="15" cy="11" fill="#7de6ac" rx="4" ry="2"/><g fill="#2b2e33"><path d="m40 10a1 1 0 0 0 -1-1h-4a1 1 0 0 0 0 2h1v3a1 1 0 0 0 2 0v-3h1a1 1 0 0 0 1-1z"/><path d="m42.9 9.553a1.042 1.042 0 0 0 -1.79 0l-2 4a1 1 0 0 0 1.79.894l1.1-2.211 1.1 2.211a1 1 0 1 0 1.79-.894z"/><path d="m50.707 9.293a1 1 0 0 0 -1.414 0l-1.293 1.293-1.293-1.293a1 1 0 0 0 -1.414 1.414l1.293 1.293-1.293 1.293a1 1 0 1 0 1.414 1.414l1.293-1.293 1.293 1.293a1 1 0 0 0 1.414-1.414l-1.293-1.293 1.293-1.293a1 1 0 0 0 0-1.414z"/><path d="m53 11a1 1 0 0 0 -1 1v2a1 1 0 0 0 2 0v-2a1 1 0 0 0 -1-1z"/><path d="m53.71 10.71a1.014 1.014 0 0 0 0-1.42 1.032 1.032 0 0 0 -.33-.21 1 1 0 0 0 -.76 0 1.155 1.155 0 0 0 -.33.21 1.032 1.032 0 0 0 -.21.33 1 1 0 0 0 -.08.38.99.99 0 0 0 1 1 1 1 0 0 0 .38-.08 1.032 1.032 0 0 0 .33-.21z"/></g><path d="m46.94 20h1.06v-2a1 1 0 0 0 -1-1h-2v1.06a1.941 1.941 0 0 0 1.94 1.94z" fill="#ffc239"/><path d="m39.447 22.106-2.171 4.341a1 1 0 0 1 -.894.553h16.618l-1.544-4.632a2 2 0 0 0 -1.898-1.368h-8.322a2 2 0 0 0 -1.789 1.106z" fill="#598ede"/><path d="m51.456 22.368a2 2 0 0 0 -1.898-1.368h-8.322a1.984 1.984 0 0 0 -1.236.451v1.033a3.516 3.516 0 0 0 3.516 3.516h9.151z" fill="#66a4ff"/><rect fill="#85b6ff" height="2" rx="1" width="4" x="46" y="21"/><path d="m44 27h2v8h-2z" fill="#ea9a0c"/><path d="m32.452 32h7.657a2.891 2.891 0 0 0 2.891-2.891v-2.109h-10a2 2 0 0 0 -2 2v1.548a1.452 1.452 0 0 0 1.452 1.452z" fill="#ffc239"/><path d="m44 21h2v6h-2z" fill="#436ba7"/><path d="m55 27h-7.548a.805.805 0 0 0 -.8.806v.841a2.353 2.353 0 0 0 2.348 2.353h4.967a1.054 1.054 0 0 1 1.033 1.062.968.968 0 0 0 .967.938h1.033v-4a2 2 0 0 0 -2-2z" fill="#ffc239"/><path d="m55 29a1 1 0 0 0 0 2h2v-2z" fill="#c12b35"/><rect fill="#ffce61" height="2" rx="1" width="4" x="49" y="27"/><path d="m35 29v-2h-2a2 2 0 0 0 -2 2v1h3a1 1 0 0 0 1-1z" fill="#598ede"/><path d="m34 27h-1a2 2 0 0 0 -2 2h1.413a1.588 1.588 0 0 0 1.587-1.587z" fill="#66a4ff"/></g></svg>