<svg id="Capa_1" enable-background="new 0 0 512 512" height="512" viewBox="0 0 512 512" width="512" xmlns="http://www.w3.org/2000/svg"><g><g><path clip-rule="evenodd" d="m373.582 272.412c19.011-29.651-22.018-58.544-43.803-26.418l-11.535 17.01 10.892 33.583 30.837-4.544z" fill="#ffdfcf" fill-rule="evenodd"/></g><g><path clip-rule="evenodd" d="m373.582 272.412c12.236-19.107-.438-37.894-16.82-40.253 4.118 7.486 4.468 17.33-1.898 27.233l-13.579 19.66-12.148 17.534 30.837-4.544z" fill="#ffcebf" fill-rule="evenodd"/></g><g><path clip-rule="evenodd" d="m359.976 292.045-50.932 73.627-75.43 46.574v96.003c0 1.707-1.384 3.091-3.091 3.091h-227.432c-1.707 0-3.091-1.384-3.091-3.091v-74.647c0-40.486 35.016-84.238 82.435-84.238h128.608l69.238-30.38 37.962-55.98z" fill="#6fd7a3" fill-rule="evenodd"/></g><g><path clip-rule="evenodd" d="m341.285 279.053-46.461 69.525-68.946 41.185c-13.579 8.359-17.171 6.029-17.171 22.253v99.322h21.819c1.707 0 3.091-1.384 3.091-3.091v-57.056-38.942l75.429-46.573 50.928-73.632z" fill="#3ec3a4" fill-rule="evenodd"/></g><g><path d="m56.784 445.305v66.035h-15.453v-66.035c0-4.265 3.461-7.726 7.726-7.726s7.727 3.461 7.727 7.726z" fill="#3ec3a4"/></g><g><path clip-rule="evenodd" d="m512 17.117c0-9.058-7.447-16.457-16.528-16.457h-228.915c-9.082 0-16.528 7.398-16.528 16.457v111.438c0 9.058 7.447 16.456 16.528 16.456h3.942v18.089c0 8.418 8.79 11.854 16.178 5.505l27.479-23.593h181.316c9.082 0 16.528-7.398 16.528-16.456z" fill="#fec165" fill-rule="evenodd"/></g><g><path clip-rule="evenodd" d="m486.857 17.117v111.438c0 9.058-7.417 16.456-16.499 16.456h25.114c9.082 0 16.528-7.398 16.528-16.456v-111.438c0-9.058-7.447-16.457-16.528-16.457h-25.114c9.082 0 16.499 7.399 16.499 16.457z" fill="#fdb441" fill-rule="evenodd"/></g><g fill="#024c67"><path d="m478.476 37.935c-4.268 0-7.726 3.459-7.726 7.726v54.525c0 4.268 3.459 7.726 7.726 7.726s7.726-3.459 7.726-7.726v-54.525c0-4.268-3.459-7.726-7.726-7.726z"/><path d="m363.492 43.683c-.019-.048-.037-.097-.057-.145-1.352-3.365-4.572-5.567-8.205-5.61-.036-.001-.072-.001-.109-.001-3.603 0-6.838 2.127-8.262 5.443-.041.097-.08.194-.119.293l-20.529 53.767c-1.522 3.986.476 8.452 4.463 9.974 3.986 1.52 8.452-.476 9.974-4.463l2.252-5.899c.036.001.071.006.108.006h23.975c.062 0 .121-.008.183-.009l2.227 5.883c1.17 3.091 4.109 4.993 7.227 4.993.909 0 1.834-.162 2.734-.502 3.991-1.511 6.001-5.971 4.491-9.962zm-14.694 37.912 6.288-16.469 6.234 16.469z"/><path d="m431.699 70.992 14.746-20.874c2.462-3.485 1.633-8.306-1.853-10.769s-8.306-1.631-10.769 1.853l-11.58 16.393-11.57-16.391c-2.46-3.485-7.279-4.319-10.768-1.856-3.486 2.461-4.317 7.282-1.856 10.768l14.733 20.871-17.477 24.74c-2.462 3.485-1.633 8.306 1.853 10.769 1.354.957 2.91 1.416 4.451 1.416 2.425 0 4.812-1.139 6.318-3.27l14.312-20.259 14.299 20.257c1.505 2.133 3.892 3.272 6.319 3.272 1.539 0 3.095-.46 4.449-1.415 3.486-2.461 4.317-7.282 1.856-10.768z"/><path d="m313.747 37.935h-30.195c-4.268 0-7.726 3.459-7.726 7.726s3.459 7.726 7.726 7.726h7.313v46.799c0 4.268 3.459 7.726 7.726 7.726s7.726-3.459 7.726-7.726v-46.799h7.43c4.268 0 7.726-3.459 7.726-7.726s-3.458-7.726-7.726-7.726z"/></g><g><path clip-rule="evenodd" d="m91.49 349.364c16.324 30.583 65.792 27.437 78.554 0v-37.34c-6.308 4.078-13.053 7.427-20.091 9.816-14.309 4.864-24.092 4.864-38.372 0-7.038-2.388-13.783-5.738-20.091-9.816z" fill="#ffb09e" fill-rule="evenodd"/></g><g><path clip-rule="evenodd" d="m50.636 260.149c0 21.204 17.112 46.661 40.854 62.04 6.308 4.078 13.053 7.427 20.091 9.816 14.28 4.864 24.063 4.864 38.372 0 7.038-2.388 13.783-5.738 20.091-9.816 23.712-15.379 40.854-40.835 40.854-62.04v-25.719c-87.548.961-65.909-59.622-160.261 0v25.719z" fill="#ffdfcf" fill-rule="evenodd"/></g><g><path clip-rule="evenodd" d="m190.573 256.625c0 35.039-43.92 74.389-78.787 75.467 14.192 4.777 23.946 4.748 38.167-.087 7.038-2.388 13.783-5.738 20.091-9.816 23.712-15.379 40.854-40.835 40.854-62.04v-25.719c-3.488-6.247-16.708-7.792-20.325 3.408z" fill="#ffcebf" fill-rule="evenodd"/></g><g><path d="m102.236 276.06c-4.267 0-7.726-3.459-7.726-7.726v-4.893c0-4.268 3.459-7.726 7.726-7.726s7.726 3.459 7.726 7.726v4.893c.001 4.268-3.458 7.726-7.726 7.726z" fill="#024c67"/></g><g><path d="m159.297 276.06c-4.267 0-7.726-3.459-7.726-7.726v-4.893c0-4.268 3.459-7.726 7.726-7.726s7.726 3.459 7.726 7.726v4.893c.001 4.268-3.459 7.726-7.726 7.726z" fill="#024c67"/></g><g><path d="m130.767 311.42c-.032 0-.064 0-.097-.001-3.982-.049-7.914-1.45-11.686-4.161-3.464-2.492-4.254-7.32-1.763-10.784 2.49-3.465 7.318-4.255 10.784-1.764 1.066.767 2.041 1.208 2.761 1.254.891-.055 1.971-.706 2.731-1.254 3.466-2.49 8.293-1.7 10.784 1.764s1.702 8.292-1.763 10.784c-3.772 2.711-7.694 4.112-11.656 4.161-.031.001-.063.001-.095.001z" fill="#ffb09e"/></g><g><path clip-rule="evenodd" d="m110.325 162.808c-44.154-5.621-65.471 39.7-59.689 71.622 90.439-35.185 69.764 19.486 160.261 0 38.488-21.554 11.798-111.322-6.249-83.215-13.345 20.796-34.517 19.194-82.058 13.165z" fill="#025f80" fill-rule="evenodd"/></g><g><path clip-rule="evenodd" d="m191.42 163.682c8.907 21.117 10.513 61.224-13.199 75.03 9.053-.233 19.741-1.515 32.677-4.282 38.488-21.554 11.798-111.322-6.249-83.215-3.68 5.739-7.973 9.787-13.229 12.467z" fill="#024c67" fill-rule="evenodd"/></g></g></svg>